<?xml version="1.0" encoding="utf-8"?>
<!-- Generator: Adobe Illustrator 16.0.0, SVG Export Plug-In . SVG Version: 6.00 Build 0)  -->
<!DOCTYPE svg PUBLIC "-//W3C//DTD SVG 1.1//EN" "http://www.w3.org/Graphics/SVG/1.1/DTD/svg11.dtd">
<svg version="1.1" id="Layer_1" xmlns="http://www.w3.org/2000/svg" xmlns:xlink="http://www.w3.org/1999/xlink" x="0px" y="0px"
	 width="500px" height="500px" viewBox="0 0 500 500" enable-background="new 0 0 500 500" xml:space="preserve">
<rect fill="#7752A1" stroke="#000000" stroke-miterlimit="10" width="500" height="500"/>
<g id="Stars">
	<polygon fill="#7D60A9" points="214.305,-28.62 285.694,-28.621 249.999,250 	"/>
	<polygon fill="#7D60A9" points="285.695,529.309 214.306,529.311 250.001,250.689 	"/>
	<polygon fill="#7D60A9" points="528.619,214.305 528.621,285.694 250,249.999 	"/>
	<polygon fill="#7D60A9" points="-28.62,285.694 -28.622,214.305 250,250 	"/>
	<polygon fill="#7D60A9" points="475.38,-25.629 525.632,24.619 250.629,249.371 	"/>
	<polygon fill="#7D60A9" points="-24.961,24.902 25.532,-25.593 250.036,249.407 	"/>
	<polygon fill="#7D60A9" points="25.966,525.793 -24.479,475.354 250.525,250.792 	"/>
	<polygon fill="#7D60A9" points="524.903,474.216 474.157,524.965 249.904,249.965 	"/>
</g>
<linearGradient id="Glare_1_" gradientUnits="userSpaceOnUse" x1="1.2856" y1="1.3813" x2="497.9521" y2="498.0478">
	<stop  offset="0" style="stop-color:#FFFFFF;stop-opacity:0.7"/>
	<stop  offset="1" style="stop-color:#FFFFFF;stop-opacity:0"/>
</linearGradient>
<rect id="Glare" x="-0.096" fill="url(#Glare_1_)" width="500" height="500"/>
</svg>
