<?xml version="1.0" encoding="utf-8"?>
<!-- Generator: Adobe Illustrator 16.0.0, SVG Export Plug-In . SVG Version: 6.00 Build 0)  -->
<!DOCTYPE svg PUBLIC "-//W3C//DTD SVG 1.1//EN" "http://www.w3.org/Graphics/SVG/1.1/DTD/svg11.dtd">
<svg version="1.1" id="Layer_1" xmlns="http://www.w3.org/2000/svg" xmlns:xlink="http://www.w3.org/1999/xlink" x="0px" y="0px"
	 width="400px" height="50px" viewBox="0 0 400 50" enable-background="new 0 0 400 50" xml:space="preserve">
<polygon display="none" fill="#9899CB" points="32.166,-24.187 -4.989,-49.187 32.166,-74.187 357.856,-74.187 395.011,-49.187 
	357.856,-24.187 "/>
<rect x="477.812" y="-33.76" display="none" fill="#FFFFFF" stroke="#000000" stroke-miterlimit="10" width="37.154" height="149.457"/>
<polygon display="none" fill="#2C2D72" points="36.701,-26.912 0.537,-49.188 36.701,-71.463 353.702,-71.463 389.865,-49.188 
	353.702,-26.912 "/>
<polygon display="none" fill="#9899CB" points="9.591,139.16 -27.564,114.16 9.591,89.16 335.281,89.16 372.436,114.16 
	335.281,139.16 "/>
<polygon display="none" fill="#2C2D72" points="11.991,136.436 -22.038,114.159 11.557,91.884 333.901,91.884 367.291,114.159 
	333.901,136.436 "/>
<polygon id="BackgroundSolid" fill="#FFFFFF" points="39.293,44.343 5.265,24.096 38.86,3.849 361.203,3.849 394.594,24.096 
	361.203,44.343 "/>
<linearGradient id="Background_1_" gradientUnits="userSpaceOnUse" x1="2.334" y1="24.27" x2="398.9989" y2="23.9225">
	<stop  offset="0" style="stop-color:#FFDE17"/>
	<stop  offset="0.2225" style="stop-color:#FFDB20"/>
	<stop  offset="0.3585" style="stop-color:#F6D332"/>
	<stop  offset="0.4712" style="stop-color:#E8C645"/>
	<stop  offset="0.5713" style="stop-color:#D5B458"/>
	<stop  offset="0.663" style="stop-color:#BD9F6A"/>
	<stop  offset="0.7486" style="stop-color:#A18876"/>
	<stop  offset="0.8294" style="stop-color:#847081"/>
	<stop  offset="0.9064" style="stop-color:#625689"/>
	<stop  offset="0.9779" style="stop-color:#3C3A8F"/>
	<stop  offset="1" style="stop-color:#2E3192"/>
</linearGradient>
<polygon id="Background" fill="url(#Background_1_)" points="39.544,44.343 5.515,24.095 39.11,3.849 361.454,3.849 394.845,24.095 
	361.454,44.343 "/>
<polygon id="Shadow_x5F_Bottom_x5F_Side" fill="#2B2F71" points="363.12,47.724 400.477,24.868 399.815,23.903 362.582,46.687 "/>
<polygon id="Shadow_x5F_Bottom" fill="#2B2F71" points="38.628,47.724 363.141,47.724 362.671,46.817 37.124,46.817 37.124,46.825 
	"/>
<linearGradient id="Shadow_x5F_Bottom_x5F_Side_x5F_Gradient_x5F_Overlay_1_" gradientUnits="userSpaceOnUse" x1="380.9248" y1="34.9443" x2="381.9007" y2="36.4533">
	<stop  offset="0" style="stop-color:#FFFFFF"/>
	<stop  offset="0.2819" style="stop-color:#9E9E9E"/>
	<stop  offset="0.7235" style="stop-color:#000000"/>
</linearGradient>
<polygon id="Shadow_x5F_Bottom_x5F_Side_x5F_Gradient_x5F_Overlay" fill="url(#Shadow_x5F_Bottom_x5F_Side_x5F_Gradient_x5F_Overlay_1_)" fill-opacity="0.4" points="
	363.12,47.724 400.477,24.868 399.815,23.903 362.582,46.687 "/>
<linearGradient id="Shadow_x5F_Bottom_x5F_Gradient_x5F_Overlay_1_" gradientUnits="userSpaceOnUse" x1="200.1309" y1="46.6055" x2="200.1328" y2="47.9744">
	<stop  offset="0" style="stop-color:#FFFFFF"/>
	<stop  offset="0.2819" style="stop-color:#9E9E9E"/>
	<stop  offset="0.7235" style="stop-color:#000000"/>
</linearGradient>
<polygon id="Shadow_x5F_Bottom_x5F_Gradient_x5F_Overlay" fill="url(#Shadow_x5F_Bottom_x5F_Gradient_x5F_Overlay_1_)" fill-opacity="0.4" points="
	38.628,47.724 363.141,47.724 362.671,46.817 37.124,46.817 37.124,46.825 "/>
<polygon id="Shadow_x5F_Top_x5F_Side" fill="#BCBCDC" points="38.846,3.495 4.265,24.39 5.222,25.697 39.842,4.779 "/>
<polygon id="Shadow_x5F_Top" fill="#BCBCDC" points="39.061,3.771 39.844,4.781 363.872,4.781 363.872,3.771 "/>
<linearGradient id="Shadow_x5F_Top_x5F_Side_x5F_Gradient_x5F_Overlay_1_" gradientUnits="userSpaceOnUse" x1="21.709" y1="14.0532" x2="22.7922" y2="15.7215">
	<stop  offset="0" style="stop-color:#FFFFFF"/>
	<stop  offset="0.0678" style="stop-color:#FAFAFA"/>
	<stop  offset="0.1482" style="stop-color:#ECECEC"/>
	<stop  offset="0.2351" style="stop-color:#D4D4D4"/>
	<stop  offset="0.3266" style="stop-color:#B2B2B2"/>
	<stop  offset="0.4217" style="stop-color:#878787"/>
	<stop  offset="0.5198" style="stop-color:#525252"/>
	<stop  offset="0.6186" style="stop-color:#151515"/>
	<stop  offset="0.6505" style="stop-color:#000000"/>
</linearGradient>
<polygon id="Shadow_x5F_Top_x5F_Side_x5F_Gradient_x5F_Overlay" opacity="0.2" fill="url(#Shadow_x5F_Top_x5F_Side_x5F_Gradient_x5F_Overlay_1_)" points="
	38.846,3.495 4.265,24.39 5.222,25.697 39.842,4.78 "/>
<linearGradient id="Shadow_x5F_Top_x5F_Gradient_x5F_Overlay_1_" gradientUnits="userSpaceOnUse" x1="201.4668" y1="3.8726" x2="201.4668" y2="4.9335">
	<stop  offset="0" style="stop-color:#FFFFFF"/>
	<stop  offset="0.0678" style="stop-color:#FAFAFA"/>
	<stop  offset="0.1482" style="stop-color:#ECECEC"/>
	<stop  offset="0.2351" style="stop-color:#D4D4D4"/>
	<stop  offset="0.3266" style="stop-color:#B2B2B2"/>
	<stop  offset="0.4217" style="stop-color:#878787"/>
	<stop  offset="0.5198" style="stop-color:#525252"/>
	<stop  offset="0.6186" style="stop-color:#151515"/>
	<stop  offset="0.6505" style="stop-color:#000000"/>
</linearGradient>
<polygon id="Shadow_x5F_Top_x5F_Gradient_x5F_Overlay" opacity="0.2" fill="url(#Shadow_x5F_Top_x5F_Gradient_x5F_Overlay_1_)" points="
	39.061,3.771 39.844,4.781 363.872,4.781 363.872,3.771 "/>
<path id="Frame" fill="#9899CB" d="M362.775,1.373H37.085L-0.07,24.095l37.155,22.723h325.69l37.154-22.723L362.775,1.373z
	 M361.396,44.343H39.485L5.456,24.095L39.051,3.848h322.344l33.39,20.247L361.396,44.343z"/>
<linearGradient id="Frame_x5F_Gradient_x5F_Overlay_1_" gradientUnits="userSpaceOnUse" x1="191.5039" y1="-39.6226" x2="198.9943" y2="17.0267">
	<stop  offset="0" style="stop-color:#FFFFFF;stop-opacity:0.5"/>
	<stop  offset="0.1586" style="stop-color:#FBFCFD;stop-opacity:0.5"/>
	<stop  offset="0.2988" style="stop-color:#F1F1F8;stop-opacity:0.5"/>
	<stop  offset="0.432" style="stop-color:#DFDFEE;stop-opacity:0.5"/>
	<stop  offset="0.561" style="stop-color:#C5C6E1;stop-opacity:0.5"/>
	<stop  offset="0.6869" style="stop-color:#A4A6D0;stop-opacity:0.5"/>
	<stop  offset="0.8106" style="stop-color:#7C7EBB;stop-opacity:0.5"/>
	<stop  offset="0.93" style="stop-color:#4D50A2;stop-opacity:0.5"/>
	<stop  offset="1" style="stop-color:#2E3192;stop-opacity:0.5"/>
</linearGradient>
<path id="Frame_x5F_Gradient_x5F_Overlay" opacity="0.5" fill="url(#Frame_x5F_Gradient_x5F_Overlay_1_)" d="M362.774,1.374H37.085
	L-0.07,24.097l37.155,22.723h325.689l37.154-22.723L362.774,1.374z M361.396,44.343H39.484L5.456,24.095L39.051,3.849h322.345
	l33.389,20.246L361.396,44.343z"/>
<linearGradient id="Glare_1_" gradientUnits="userSpaceOnUse" x1="193.415" y1="-2.7539" x2="207.226" y2="54.165">
	<stop  offset="0" style="stop-color:#FFFFFF"/>
	<stop  offset="0.1806" style="stop-color:#C2C2C2"/>
	<stop  offset="0.4033" style="stop-color:#7E7E7E"/>
	<stop  offset="0.6047" style="stop-color:#484848"/>
	<stop  offset="0.7776" style="stop-color:#212121"/>
	<stop  offset="0.9151" style="stop-color:#090909"/>
	<stop  offset="1" style="stop-color:#000000"/>
</linearGradient>
<polygon id="Glare" opacity="0.3" fill="url(#Glare_1_)" points="37.085,46.817 -0.07,24.096 37.085,1.374 362.775,1.374 
	399.93,24.096 362.775,46.817 "/>
</svg>
